<?xml version="1.0" standalone="no"?>
<!DOCTYPE svg PUBLIC "-//W3C//DTD SVG 20010904//EN"
 "http://www.w3.org/TR/2001/REC-SVG-20010904/DTD/svg10.dtd">
<svg version="1.0" xmlns="http://www.w3.org/2000/svg"
 width="225.000000pt" height="225.000000pt" viewBox="0 0 225.000000 225.000000"
 preserveAspectRatio="xMidYMid meet">
<metadata>
Created by potrace 1.14, written by Peter Selinger 2001-2017
</metadata>
<g transform="translate(0.000000,225.000000) scale(0.100000,-0.100000)"
fill="#000000" stroke="none">
<path d="M1024 1786 c-70 -17 -133 -56 -185 -114 -117 -130 -138 -293 -60
-453 17 -35 31 -69 31 -74 0 -17 -95 -104 -128 -118 -16 -7 -67 -52 -113 -101
-46 -49 -109 -115 -139 -146 -30 -31 -89 -94 -130 -140 -41 -46 -87 -96 -102
-113 -16 -16 -28 -36 -28 -45 0 -8 18 -32 39 -52 57 -55 75 -48 173 69 45 53
85 95 90 94 4 -2 8 1 8 7 0 5 13 23 30 40 16 17 30 35 30 41 0 6 5 7 10 4 6
-3 10 1 10 9 0 9 3 15 8 13 4 -1 17 8 30 21 12 12 19 22 16 22 -4 0 5 9 20 21
14 11 23 25 20 31 -4 6 -2 8 3 5 12 -8 36 17 39 40 3 20 53 65 65 58 5 -3 6 2
2 11 -4 11 -2 15 4 11 6 -4 14 0 17 9 4 10 2 13 -7 8 -11 -7 49 53 105 104
l26 23 45 -20 c139 -63 286 -49 405 40 31 23 60 48 65 55 4 7 14 19 22 27 8 8
11 17 8 21 -4 3 -2 6 4 6 6 0 13 9 16 20 8 30 -6 24 -28 -12 -40 -69 -58 -70
-49 -2 3 21 7 104 9 182 2 139 -9 227 -35 274 -6 11 -6 19 0 23 6 3 10 1 10
-4 0 -6 6 -11 13 -11 11 0 77 -102 77 -120 0 -4 6 -10 13 -13 8 -3 14 1 14 9
0 7 -5 10 -11 7 -6 -3 -6 -1 1 7 13 14 -2 60 -20 60 -6 0 -7 3 -4 6 17 18
-152 148 -207 160 -67 15 -86 16 -86 5 0 -7 8 -11 18 -10 9 1 20 0 25 -1 4 -1
10 -3 15 -5 4 -1 20 -7 35 -13 16 -7 33 -12 38 -12 5 0 9 -4 9 -9 0 -5 9 -12
19 -16 11 -3 22 -13 25 -21 3 -8 1 -12 -4 -9 -5 3 -18 8 -27 10 -10 3 -34 8
-55 13 -59 15 -238 14 -288 -1 -25 -8 -53 -13 -62 -11 -10 1 -19 -7 -22 -22
-4 -15 -11 -22 -18 -18 -7 4 -8 3 -4 -5 4 -6 3 -26 -3 -44 -10 -30 -15 -33
-41 -29 -26 4 -29 7 -18 20 7 8 11 17 9 20 -7 9 51 62 61 55 6 -3 8 -1 4 5
-11 18 115 91 160 93 23 1 66 18 44 17 -8 0 -38 -5 -66 -12z m173 -140 c77 -5
100 -18 111 -59 10 -38 8 -294 -2 -353 -11 -60 -34 -69 -175 -68 -176 1 -171
-1 -178 89 -6 89 -2 314 7 335 1 3 2 8 1 12 -2 16 49 39 96 45 26 2 50 6 51 8
2 2 9 2 15 0 7 -3 40 -6 74 -9z m-327 -428 c0 -18 -2 -20 -9 -8 -6 8 -7 18 -5
22 9 14 14 9 14 -14z m20 -143 c0 -8 -4 -15 -10 -15 -5 0 -7 7 -4 15 4 8 8 15
10 15 2 0 4 -7 4 -15z m204 1 c18 -2 32 -11 37 -23 7 -20 4 -21 -49 -21 -60 1
-122 23 -122 44 0 12 37 12 134 0z"/>
<path d="M1110 1791 c0 -4 11 -6 25 -3 14 2 25 6 25 8 0 2 -11 4 -25 4 -14 0
-25 -4 -25 -9z"/>
<path d="M629 1668 c0 -7 -1 -98 0 -203 0 -104 -4 -206 -9 -226 -12 -44 -46
-61 -109 -58 -52 4 -71 26 -71 84 0 53 -9 64 -50 67 l-35 3 1 -65 c2 -118 48
-161 173 -162 85 -1 134 15 157 50 15 23 18 59 22 260 3 175 1 236 -8 247 -15
18 -70 20 -71 3z"/>
<path d="M1550 1410 c0 -204 3 -274 13 -284 18 -18 313 -14 352 5 47 23 68 61
70 126 3 64 -7 94 -44 138 -14 16 -22 27 -17 23 11 -9 35 22 42 55 6 23 6 82
0 107 -21 87 -40 94 -248 98 l-168 4 0 -272z m324 180 c17 -13 22 -95 8 -116
-16 -24 -51 -32 -149 -33 l-103 -2 0 80 c0 44 4 81 10 83 29 9 220 0 234 -12z
m23 -246 c16 -22 17 -84 2 -118 -15 -32 -33 -36 -162 -36 l-107 0 1 83 c1 45
6 85 11 88 5 3 61 5 125 3 99 -2 119 -5 130 -20z"/>
<path d="M1318 953 c-2 -21 -2 -77 0 -125 3 -75 6 -87 22 -91 11 -3 19 -2 18
2 0 3 0 19 1 35 l1 30 33 -31 c34 -32 67 -48 67 -33 0 5 -13 25 -30 43 -28 32
-42 76 -20 62 6 -3 10 0 10 8 0 8 7 17 15 21 19 7 19 32 0 40 -9 3 -27 -7 -44
-26 l-29 -32 0 40 c0 67 -1 73 -21 84 -18 9 -20 6 -23 -27z"/>
<path d="M813 910 c-50 -21 -6 -112 51 -106 28 3 55 -17 37 -29 -24 -14 -50
-12 -67 6 -20 23 -44 25 -44 4 0 -32 50 -64 85 -55 6 2 22 3 37 3 22 1 29 7
33 29 10 45 -17 78 -64 78 -45 0 -55 7 -36 26 18 18 40 18 70 -2 21 -14 25
-14 25 -2 0 42 -75 71 -127 48z"/>
<path d="M993 910 c-13 -5 -23 -11 -24 -12 -8 -50 -8 -94 0 -121 11 -31 17
-36 61 -44 28 -6 50 -6 50 -2 0 5 6 9 14 9 20 0 29 16 21 40 -7 23 -35 27 -35
5 0 -8 -6 -15 -12 -16 -7 0 -21 -2 -31 -4 -9 -2 -22 5 -27 16 -9 16 -6 20 16
25 15 4 41 7 58 8 26 1 32 6 34 27 6 54 -66 94 -125 69z m82 -50 c0 -10 -11
-15 -36 -16 -30 -1 -36 2 -32 16 6 22 68 22 68 0z"/>
<path d="M1170 907 c-29 -14 -39 -53 -29 -110 9 -52 20 -60 81 -63 57 -2 79
13 70 48 -6 24 -24 23 -39 -1 -18 -29 -64 -19 -69 15 -2 10 5 15 19 14 12 -1
38 -2 58 -1 36 1 37 1 32 38 -3 20 -12 43 -20 51 -20 20 -72 25 -103 9z m77
-35 c18 -12 1 -30 -27 -28 -44 2 -44 36 0 36 8 0 20 -4 27 -8z"/>
<path d="M1489 901 c-18 -15 -22 -27 -20 -77 1 -87 24 -101 144 -85 13 2 8 61
-5 61 -10 0 -10 2 0 9 20 12 21 56 2 81 -22 30 -90 36 -121 11z m89 -42 c2
-13 -4 -16 -28 -14 -36 3 -45 9 -35 25 10 16 59 8 63 -11z m12 -58 c-1 -18
-20 -32 -46 -34 -24 -2 -30 2 -32 22 -3 21 0 23 22 19 14 -3 26 -1 26 3 0 5 7
6 15 3 8 -4 15 -9 15 -13z"/>
<path d="M1654 911 c-2 -2 -4 -41 -4 -87 0 -73 2 -82 20 -87 18 -5 20 0 20 58
0 62 7 77 38 81 6 1 12 -4 12 -11 0 -7 14 -16 30 -20 17 -4 28 -10 25 -15 -6
-10 43 -27 73 -25 15 1 22 -4 22 -17 0 -10 -3 -18 -7 -19 -5 0 -18 -2 -30 -5
-15 -2 -26 3 -33 16 -14 26 -40 26 -40 1 0 -42 94 -69 132 -38 44 35 15 97
-46 97 -43 0 -57 27 -20 36 14 4 30 2 37 -5 13 -13 47 -15 47 -3 0 5 -6 17
-14 27 -19 26 -113 27 -128 1 -9 -17 -10 -17 -23 1 -10 13 -27 18 -60 18 -25
0 -48 -1 -51 -4z"/>
</g>
</svg>
